<svg width="334" height="190" viewBox="0 0 334 190" fill="none" xmlns="http://www.w3.org/2000/svg">
<path d="M58.607 165.697L0 190H333.419L276.427 165.697H58.607Z" fill="#8C96FF"/>
<path d="M146.922 120.509L135.849 137.595L157.087 161.551H178.503L198.47 137.19L186.11 120.509H146.922Z" fill="#3F4553"/>
<path d="M135.849 137.595C135.849 137.595 88.2165 141.093 76.2677 152.942C64.3189 164.792 69.9405 177.657 81.5791 177.657C103.003 177.657 148.333 178.902 169.78 177.657L171.06 149.916L135.849 137.595Z" fill="#3F4553"/>
<path d="M197.237 137.006C197.237 137.006 247.118 141.093 259.067 152.942C271.016 164.792 264.13 172.642 253.755 177.657C239.155 184.72 186.529 183.549 159.235 174.969L164.283 149.915L197.237 137.006Z" fill="#3F4553"/>
<path d="M199.431 160.277L196.058 152L200.261 150.225C200.261 150.225 199.679 145.328 204.82 144.385C209.961 143.442 216.087 146.594 222.057 144.053C227.563 141.712 234.301 139.554 240.589 142.794C241.52 143.273 241.954 144.326 241.636 145.283L241.613 145.357C241.295 146.322 240.302 146.918 239.24 146.815C237.022 146.602 233.068 146.646 229.16 148.892C222.422 152.78 199.431 160.277 199.431 160.277Z" fill="#FEBBA0"/>
<path d="M238.674 160.749C238.674 160.749 205.386 155.13 135.267 154.26L128.498 162.98C128.498 162.98 145.945 172.451 162.321 175.875C178.697 179.3 235.231 190.081 260.478 173.474L238.674 160.749Z" fill="#3F4553"/>
<path d="M162.321 175.883C145.534 172.2 127.971 162.759 127.971 162.759L129.018 161.073" stroke="#6E758F" stroke-width="1.5925" stroke-miterlimit="10" stroke-linecap="round"/>
<path d="M135.267 154.261C135.267 154.261 212.303 152.589 232.859 163.915" stroke="#6E758F" stroke-width="1.5925" stroke-miterlimit="10" stroke-linecap="round"/>
<path d="M97.4515 159.003C97.4515 159.003 111.517 152.743 121.132 156.845" stroke="#6E758F" stroke-width="1.5925" stroke-miterlimit="10" stroke-linecap="round"/>
<path d="M130.119 161.537L135.26 154.099L130.119 151.455C130.119 151.455 128.32 147.176 123.28 145.85C118.232 144.532 114.642 146.66 108.896 143.685C103.6 140.938 97.056 138.294 90.5272 141.056C89.5657 141.461 89.0385 142.477 89.2788 143.457L89.2943 143.531C89.5347 144.517 90.4729 145.18 91.5352 145.158C93.7606 145.107 97.7074 145.445 101.414 147.979C107.811 152.353 130.119 161.537 130.119 161.537Z" fill="#FEBBA0"/>
<path d="M174.378 154.526L195.438 152.559" stroke="#6E758F" stroke-width="1.5925" stroke-miterlimit="10" stroke-linecap="round"/>
<path d="M147.596 145.858L159.343 153.936" stroke="#6E758F" stroke-width="1.5925" stroke-miterlimit="10" stroke-linecap="round"/>
<path d="M144.565 35.914C145.061 40.5242 149.287 43.8823 154.001 43.4257C158.715 42.9691 162.135 38.8598 161.639 34.257C161.142 29.6469 156.917 26.2887 152.202 26.7453C147.496 27.1945 144.076 31.3039 144.565 35.914Z" fill="#3F4553"/>
<path d="M162.174 39.2648C162.174 39.2648 147.193 37.1144 144.836 23.689C142.758 11.8249 151.14 2.31744 160.328 0.675171C160.336 0.675171 182.411 32.9903 162.174 39.2648Z" fill="#3F4553"/>
<path d="M162.515 1.94924C161.414 2.46475 160.367 3.14228 159.413 4.01865C150.876 11.8176 156.281 26.9589 163.926 33.7931C168.16 37.571 174.347 39.3311 179.752 37.4016C187.653 34.5811 190.127 26.0825 188.522 18.5119C187.327 12.8707 184.032 7.54621 179.17 4.23222C174.309 0.925584 167.741 -0.473659 162.515 1.94924Z" fill="#FDBCA0"/>
<path d="M161.096 29.2273C159.599 30.6339 156.994 31.2083 154.993 30.5381C152.993 29.868 151.349 28.0784 150.83 26.0016C150.364 24.1384 150.868 22.0175 152.311 20.876C153.753 19.7345 156.35 19.8081 157.583 21.2884L161.096 29.2273Z" fill="#FDBCA0"/>
<path d="M158.909 24.2782L160.483 51.0406C160.693 55.9895 164.919 59.9221 170.129 60.0178C176.146 60.1357 180.868 55.1426 180.101 49.4719L176.922 24.6243L158.909 24.2782Z" fill="#FDBCA0"/>
<path d="M179.062 41.4005L178.666 37.733C178.666 37.733 170.912 39.9939 163.926 33.7856C163.926 33.793 167.95 40.7671 179.062 41.4005Z" fill="#DF8370"/>
<path d="M155.831 20.2351C165.927 19.7417 175.138 13.3052 180.225 5.01282C180.225 5.01282 170.936 -3.36055 157.358 1.5368C146.107 5.58724 155.831 20.2351 155.831 20.2351Z" fill="#3F4553"/>
<path d="M156.94 26.3917C155.777 26.5022 154.761 25.9056 154.668 25.0587C154.598 24.418 155.071 23.8215 155.8 23.5122" stroke="#444359" stroke-width="1.1144" stroke-miterlimit="10" stroke-linecap="round"/>
<path d="M181.194 24.3002C181.427 23.6301 181.83 23.0998 182.28 22.5991L182.497 23.2471C181.985 23.063 181.706 22.7832 181.419 22.5107C181.148 22.2235 180.907 21.9363 180.69 21.627C180.256 21.0157 179.891 20.3676 179.628 19.6827C180.171 20.2056 180.667 20.7432 181.186 21.2587C181.45 21.5091 181.698 21.7669 181.969 21.9878C182.225 22.2014 182.528 22.4223 182.737 22.4739L183.365 22.6138L182.954 23.1219C182.535 23.6448 182.07 24.1309 181.427 24.4844C181.349 24.5285 181.256 24.4991 181.21 24.4328C181.186 24.3813 181.186 24.3371 181.194 24.3002Z" fill="#444359"/>
<path d="M183.466 26.6422C183.156 27.2461 182.629 27.7689 181.946 28.0856C181.272 28.417 180.434 28.4833 179.69 28.2771C178.93 28.0782 178.341 27.6069 177.837 27.1209C177.612 26.8557 177.387 26.5833 177.201 26.3034C177.038 26.0015 176.867 25.7069 176.743 25.3976C177.03 25.6038 177.278 25.8247 177.526 26.0457L178.294 26.6495C178.837 26.9883 179.349 27.3565 179.938 27.4891C180.504 27.6585 181.109 27.6511 181.706 27.4964C182.295 27.3344 182.884 27.0178 183.466 26.6422Z" fill="#444359"/>
<path d="M175.348 17.0169C175.65 17.8712 175.821 18.7549 175.759 19.7049C175.72 20.1689 175.603 20.677 175.239 21.1262C174.867 21.5828 174.239 21.7817 173.688 21.767C173.122 21.7596 172.564 21.5239 172.184 21.1925C171.789 20.8611 171.478 20.4782 171.246 20.0731C170.781 19.2557 170.486 18.4014 170.339 17.5029C170.315 17.363 170.416 17.2305 170.563 17.201C170.703 17.1789 170.827 17.2599 170.866 17.3777L170.874 17.3925C171.137 18.1878 171.486 18.9906 171.936 19.6828C172.386 20.353 172.998 20.9716 173.719 20.9495C174.076 20.9642 174.409 20.8759 174.611 20.6328C174.836 20.3972 174.944 20.0142 175.006 19.6239C175.123 18.8359 175.045 17.9669 174.906 17.1347V17.12C174.882 17.0022 174.975 16.8843 175.099 16.8696C175.2 16.8549 175.309 16.9212 175.348 17.0169Z" fill="#444359"/>
<path d="M186.606 15.3451C186.862 16.0668 187.002 16.8033 186.986 17.5913C186.978 17.9816 186.901 18.4087 186.637 18.8138C186.381 19.2409 185.808 19.506 185.311 19.4839C184.792 19.4766 184.319 19.2188 184.016 18.9169C183.706 18.6076 183.466 18.2762 183.288 17.9227C182.939 17.2157 182.722 16.494 182.613 15.7354C182.59 15.5955 182.698 15.463 182.853 15.4409C182.985 15.4261 183.109 15.4998 183.148 15.6176L183.156 15.6323C183.381 16.2951 183.652 16.9727 184.001 17.5618C184.35 18.1362 184.823 18.6886 185.342 18.6591C185.606 18.6665 185.815 18.5928 185.955 18.3866C186.11 18.1804 186.188 17.8638 186.234 17.5324C186.312 16.8696 186.25 16.1405 186.164 15.4482V15.4335C186.149 15.3157 186.242 15.2052 186.366 15.1831C186.467 15.1831 186.575 15.2494 186.606 15.3451Z" fill="#444359"/>
<path d="M194.981 53.4708C194.911 48.9785 179.573 45.3846 179.573 45.3846C178.612 46.3936 176.96 48.0948 170.005 48.0948C163.352 48.0948 160.693 46.4599 159.654 45.3846H153.07C151.605 45.3846 150.264 46.18 149.651 47.4467C136.462 74.8498 143.874 105.456 146.914 120.502C147.193 121.886 174.719 120.951 187.134 121.886C189.816 122.1 195.244 69.7978 194.981 53.4708Z" fill="#FEE6C6"/>
<path d="M162.949 92.2225C164.314 81.7503 165.981 75.4684 167.26 77.5304C168.392 79.3568 167.764 88.5182 166.066 97.3555C166.074 97.3555 162.367 96.7074 162.949 92.2225Z" fill="#FEBBA0"/>
<path d="M171.959 92.2225C170.594 81.7503 168.927 75.4684 167.648 77.5304C166.516 79.3568 167.144 88.5182 168.842 97.3555C168.834 97.3555 172.541 96.7074 171.959 92.2225Z" fill="#FEBBA0"/>
<path d="M217.413 89.6228H200.083L202.835 106.34L171.385 91.7659C171.277 90.6465 171.129 89.262 170.951 87.7965C169.765 87.7965 168.571 87.7965 167.384 87.7817C167.392 89.0558 167.415 89.9174 167.415 89.9174C167.415 89.9174 166.803 97.6059 168.206 100.169C170.873 105.044 198.16 120.745 205.735 122.608C206.208 122.726 206.681 122.814 207.154 122.873C214.466 123.853 219.312 119.957 219.258 112.946L217.413 89.6228Z" fill="#FEBBA0"/>
<path d="M163.647 87.7228C163.375 89.3724 163.135 90.9631 162.949 92.2225L132.406 105.655L133.693 89.6302H116.363L114.526 112.968C114.479 119.979 119.325 123.867 126.63 122.895C127.103 122.829 127.576 122.741 128.049 122.63C135.624 120.767 161.003 107.739 166.423 100.139C168.028 97.8931 167.268 90.3298 167.268 90.3298C167.268 90.3298 167.268 89.284 167.237 87.7964C166.043 87.7743 164.849 87.7522 163.647 87.7228Z" fill="#FEBBA0"/>
<path d="M138.129 98.7697C144.906 79.7326 144.851 79.7179 153.171 45.3922C147.604 45.7531 147.03 44.8914 142.641 47.0566C129.475 53.552 117.077 74.8868 113.425 98.7697H138.129Z" fill="#FEE6C6"/>
<path d="M198.47 96.8916C194.484 83.4073 179.573 45.392 179.573 45.392C194.484 44.9133 214.831 63.376 219.7 94.4245L198.47 96.8916Z" fill="#FEE6C6"/>
<path d="M194.988 67.1171L191.848 91.6259" stroke="#EED2AD" stroke-width="1.5925" stroke-miterlimit="10" stroke-linecap="round"/>
<path d="M140.982 71.1381L143.479 97.3555" stroke="#EED2AD" stroke-width="1.5925" stroke-miterlimit="10" stroke-linecap="round"/>
</svg>
